# xmcd CD database file
#
# Track frame offsets:
#	150
#	20779
#	42519
#	62294
#	64258
#	82198
#	102942
#	123527
#	143459
#	165868
#	187263
#
# Disc length: 2810 seconds
#
# Revision: 11
# Processed by: cddbd v1.5PL3 Copyright (c) Steve Scherf et al.
# Submitted via: CDex 1.51
#
DISCID=970af80b
DTITLE=Every Little Thing - Time to Destination
DYEAR=1998
DGENRE=Latin
TTITLE0=For the moment
TTITLE1=ima demo...anata ga suki dakara
TTITLE2=Face the change <<Album Mix>>
TTITLE3=Old Dreams <<Instrumental>>
TTITLE4=monochrome
TTITLE5=All along
TTITLE6=Hometown
TTITLE7=deatta korono youni
TTITLE8=Shapes Of Love
TTITLE9=True colors
TTITLE10=Time goes by <<Orchestra Version>>
EXTD=YEAR: 1998
EXTT0=
EXTT1=
EXTT2=
EXTT3=
EXTT4=
EXTT5=
EXTT6=
EXTT7=
EXTT8=
EXTT9=
EXTT10=
PLAYORDER=
